<svg width="45" height="53" viewBox="0 0 45 53" fill="none" xmlns="http://www.w3.org/2000/svg">
<path d="M26.95 21.42C17.44 19.22 16.4 18.24 16.4 15.32V15.17C16.4 13.38 18.14 11.3 23.05 11.3C25.87 11.3 29.04 12.28 30.68 12.87L32.59 13.55V2.09L30.78 1.73C28.69 1.29 25.84 0.690002 23.22 0.690002C11.36 0.690002 3.38998 6.92001 3.38998 16.19V16.33C3.38998 25.96 9.68998 29.17 22.09 32.03C30.5 33.97 31.85 35.15 31.85 37.92V38.07C31.85 41.19 27.96 42.31 24.32 42.31C18.44 42.31 14.54 40.31 9.77998 36.85L8.74998 36.1L0.919983 44.55L2.16998 45.5C8.71998 50.5 15.88 52.92 24.07 52.92C36.89 52.92 44.86 46.82 44.86 36.99V36.85C44.86 27.55 37.7 23.96 26.95 21.43V21.42Z" fill="#FF9E01"/>
</svg>
